<svg width="15" height="16" viewBox="0 0 15 16" fill="none" xmlns="http://www.w3.org/2000/svg">
<path d="M7.11188 4.40906C6.4019 4.40965 5.70803 4.62069 5.11795 5.0155C4.52788 5.41031 4.06807 5.97118 3.79665 6.62723C3.52523 7.28327 3.45437 8.00506 3.59302 8.70136C3.73168 9.39767 4.07363 10.0372 4.57566 10.5393C5.07769 11.0413 5.71726 11.3833 6.41357 11.5219C7.10988 11.6606 7.83166 11.5897 8.48771 11.3183C9.14375 11.0469 9.70462 10.5871 10.0994 9.99698C10.4942 9.4069 10.7053 8.71304 10.7059 8.00306C10.7071 7.53075 10.6149 7.06287 10.4347 6.62629C10.2545 6.18971 9.98983 5.79304 9.65586 5.45907C9.32189 5.1251 8.92522 4.86041 8.48864 4.68022C8.05206 4.50002 7.58418 4.40787 7.11188 4.40906ZM7.11188 10.3341C6.65025 10.3335 6.19918 10.196 5.81568 9.93904C5.43219 9.68209 5.1335 9.31718 4.9574 8.89047C4.78129 8.46376 4.73567 7.99441 4.82631 7.54178C4.91695 7.08914 5.13978 6.67355 5.46661 6.34755C5.79345 6.02156 6.20961 5.7998 6.66248 5.71032C7.11535 5.62085 7.58457 5.66767 8.01083 5.84487C8.43709 6.02208 8.80122 6.3217 9.05719 6.70585C9.31316 7.09001 9.44947 7.54144 9.44887 8.00306C9.44676 8.62167 9.19967 9.21424 8.76168 9.65111C8.3237 10.088 7.73049 10.3335 7.11188 10.3341ZM11.6869 4.26206C11.6867 4.42756 11.6374 4.58929 11.5453 4.7268C11.4532 4.86431 11.3224 4.97144 11.1695 5.03463C11.0165 5.09783 10.8483 5.11426 10.686 5.08185C10.5237 5.04944 10.3746 4.96965 10.2577 4.85255C10.1407 4.73546 10.0611 4.58632 10.0289 4.42398C9.99667 4.26165 10.0133 4.09341 10.0767 3.94052C10.1401 3.78764 10.2473 3.65698 10.385 3.56505C10.5226 3.47312 10.6844 3.42406 10.8499 3.42406C10.9602 3.42353 11.0695 3.44483 11.1715 3.48673C11.2735 3.52863 11.3662 3.59031 11.4443 3.6682C11.5224 3.7461 11.5843 3.83867 11.6264 3.94059C11.6686 4.04251 11.6901 4.15177 11.6899 4.26206H11.6869ZM14.0649 5.11206C14.0879 4.02347 13.6816 2.96955 12.9339 2.17806C12.1416 1.43355 11.0899 1.02775 10.0029 1.04706C8.84687 0.981059 5.38088 0.981059 4.22487 1.04706C3.13676 1.02525 2.08331 1.43012 1.28988 2.17506C0.543352 2.96731 0.137283 4.02072 0.158875 5.10906C0.092875 6.26506 0.092875 9.73106 0.158875 10.8871C0.135883 11.9756 0.542149 13.0296 1.28988 13.8211C2.08331 14.5664 3.13641 14.9726 4.22487 14.9531C5.38088 15.0191 8.84687 15.0191 10.0029 14.9531C11.0915 14.9761 12.1454 14.5698 12.9369 13.8221C13.6821 13.029 14.088 11.9761 14.0679 10.8881C14.1339 9.73206 14.1339 6.26906 14.0679 5.11306L14.0649 5.11206ZM12.5709 12.1281C12.452 12.4293 12.2726 12.7028 12.0436 12.9318C11.8147 13.1608 11.5411 13.3402 11.2399 13.4591C9.88277 13.7379 8.4943 13.8328 7.11188 13.7411C5.7295 13.8316 4.34122 13.7371 2.98388 13.4601C2.68266 13.3412 2.40909 13.1618 2.18012 12.9328C1.95116 12.7038 1.7717 12.4303 1.65288 12.1291C1.37521 10.7725 1.28136 9.38468 1.37388 8.00306C1.2833 6.62068 1.37781 5.23241 1.65488 3.87506C1.77335 3.57301 1.95276 3.2986 2.18193 3.06892C2.41109 2.83924 2.6851 2.65921 2.98688 2.54006C4.34305 2.26181 5.7305 2.1673 7.11188 2.25906C8.49425 2.16849 9.88253 2.26299 11.2399 2.54006C11.5411 2.65888 11.8147 2.83835 12.0436 3.06731C12.2726 3.29627 12.452 3.56985 12.5709 3.87106C12.8511 5.22933 12.947 6.61918 12.8559 8.00306C12.9474 9.38448 12.8526 10.7719 12.5739 12.1281H12.5709Z" fill="#8A57DC"/>
</svg>
