<svg width="69" height="73" viewBox="0 0 69 73" fill="none" xmlns="http://www.w3.org/2000/svg">
<path d="M38.86 0.161018C38.5743 0.656391 38.3989 1.20759 38.3459 1.77698C37.97 3.36489 37.8106 4.99632 37.8719 6.62696C37.747 10.8013 38.3441 14.9659 39.637 18.937C40.5757 21.8093 41.9228 24.5315 43.637 27.02C45.0188 29.2745 46.8718 31.2037 49.069 32.6751C49.8944 33.328 50.9029 33.7072 51.954 33.76C52.1944 33.7803 52.4362 33.7432 52.6595 33.652C52.8829 33.5607 53.0815 33.4178 53.2389 33.235C53.5159 32.9951 53.7303 32.6914 53.8636 32.3501C53.9969 32.0088 54.045 31.6401 54.004 31.276C54.0026 30.2426 53.677 29.2355 53.073 28.397C52.2236 27.2046 51.2655 26.0935 50.211 25.078C48.2336 23.1342 46.4399 21.0119 44.853 18.738C43.6856 16.9337 42.6912 15.0232 41.883 13.032C40.3777 10.2322 39.5428 7.12123 39.444 3.94398C39.29 1.90498 39.256 1.52206 39.176 0.831062C39.125 0.420062 39.068 0.0600267 39.05 0.0200267C39.032 -0.0199733 38.952 0.0300179 38.86 0.161018Z" fill="#C0C5CE"/>
<path d="M66.4549 2.21204C66.2268 2.36641 66.0075 2.53333 65.7979 2.71204C64.531 3.70403 63.4 4.85823 62.4339 6.14502C60.6691 8.40044 59.1219 10.8179 57.8129 13.365C56.5179 15.9251 55.5927 18.6559 55.065 21.476C54.6075 23.5671 54.3966 25.7047 54.4369 27.845C54.3868 29.0804 54.4709 30.3177 54.6879 31.535C55.0759 33.9 55.9279 35.962 56.8699 36.813C57.0386 36.992 57.2435 37.1331 57.4709 37.2267C57.6983 37.3203 57.9431 37.3643 58.1889 37.356C58.6834 37.3741 59.1711 37.2363 59.5829 36.962C60.0531 36.6308 60.4447 36.2001 60.73 35.7007C61.0153 35.2013 61.1873 34.6453 61.2339 34.072C61.3769 33.124 61.348 32.581 61 29.817C60.526 26.047 60.4349 25.088 60.3429 23.088C60.2293 21.0249 60.3925 18.9559 60.828 16.936C60.902 16.622 61.0789 15.788 61.2219 15.08C62.2839 9.80196 62.576 9.04198 65.112 5.02698C65.558 4.31898 66.0829 3.47297 66.2829 3.14197C66.4829 2.81097 66.6889 2.457 66.7509 2.354L66.8649 2.17102L66.6989 2.177C66.6164 2.17742 66.5343 2.18923 66.4549 2.21204Z" fill="#C0C5CE"/>
<path d="M30.413 12.995C28.8813 13.2838 27.5238 14.1616 26.632 15.4399C26.2755 15.9925 25.9985 16.5923 25.809 17.2219C25.6701 17.6748 25.6159 18.1494 25.649 18.6219C25.6171 19.083 25.6613 19.5462 25.7799 19.9929C26.0061 20.8615 26.4263 21.6675 27.009 22.3501C27.5917 23.0327 28.3217 23.5743 29.144 23.934C29.8584 24.2438 30.6341 24.3864 31.412 24.3509C32.2072 24.3917 32.9994 24.2264 33.7119 23.871C34.5779 23.4848 35.3338 22.8887 35.9113 22.1366C36.4887 21.3845 36.8695 20.5003 37.019 19.564C37.2226 18.4542 37.0623 17.3083 36.562 16.297C36.2728 15.6323 35.8509 15.0336 35.322 14.538C34.5912 13.8415 33.6917 13.3473 32.7119 13.104C31.96 12.9183 31.1791 12.8813 30.413 12.995Z" fill="#C0C5CE"/>
<path d="M21.37 21.5639C21.2518 21.5854 21.1355 21.6158 21.022 21.6549C20.7232 22.0472 20.4576 22.4636 20.228 22.8999C20.0007 23.4901 19.9551 24.1347 20.0969 24.751C20.5079 26.4929 22.342 28.8239 25.135 31.1509C27.6431 33.2877 30.463 35.0288 33.497 36.3139C34.4665 36.6925 35.4583 37.0111 36.467 37.2679C37.112 37.4509 38.798 37.925 40.208 38.331C41.3189 38.7218 42.4644 39.0067 43.629 39.1819L43.806 39.1759L43.578 38.9759C42.9094 38.4856 42.1915 38.0664 41.436 37.7249C39.2965 36.6646 37.24 35.4444 35.284 34.0749C33.3883 32.64 31.6479 31.0108 30.091 29.214C29.828 28.9 28.9909 27.8199 28.2349 26.8139C27.3114 25.5012 26.304 24.2496 25.219 23.0669C24.6256 22.3841 23.8687 21.8632 23.019 21.553C22.473 21.4589 21.9146 21.4627 21.37 21.5639Z" fill="#C0C5CE"/>
<path d="M12.477 38.0601C12.0683 38.1952 11.6912 38.4116 11.3683 38.6961C11.0454 38.9807 10.7834 39.3277 10.598 39.7161C10.302 40.3262 10.0907 40.9738 9.96996 41.6411C9.80942 42.8317 9.76922 44.0354 9.84996 45.234C9.92396 46.862 9.85596 50.1521 9.70696 52.1511C9.57993 53.6721 9.3335 55.1807 8.96996 56.6631C8.71296 57.6631 7.17596 62.369 6.76996 63.403C6.30236 64.5993 5.73363 65.7534 5.06996 66.8531C4.76196 67.3271 4.48696 67.6931 3.01896 69.5781C1.80996 71.1391 0.709961 72.589 0.709961 72.635C0.709961 72.658 0.823961 72.6521 0.966961 72.6291C1.3832 72.494 1.76789 72.2763 2.09796 71.989C3.44867 71.1335 4.6749 70.0957 5.74196 68.9051C8.32383 66.2475 10.5492 63.2655 12.362 60.0341C13.892 57.1966 15.017 54.1587 15.704 51.0091C16.1585 49.0512 16.3999 47.0499 16.424 45.0401C16.4544 43.8839 16.3275 42.7291 16.047 41.6071C15.9291 40.4734 15.4599 39.4049 14.705 38.5511C14.351 38.1861 14.225 38.094 13.968 38.02C13.4774 37.8905 12.9599 37.9044 12.477 38.0601Z" fill="#C0C5CE"/>
<path d="M33.8959 38.4711C32.957 38.6368 32.073 39.03 31.3213 39.6165C30.5696 40.2029 29.9731 40.9647 29.5839 41.835C29.2335 42.5464 29.0619 43.3324 29.0839 44.1251C29.0668 44.5482 29.1109 44.9715 29.2149 45.382C29.4547 46.3403 29.923 47.2263 30.5799 47.9641C31.1019 48.5435 31.7369 49.0099 32.4459 49.3346C33.155 49.6593 33.923 49.8354 34.7026 49.852C35.4823 49.8685 36.2571 49.7253 36.9793 49.4311C37.7015 49.1368 38.3558 48.6978 38.9019 48.1411C39.6978 47.3001 40.2385 46.2504 40.4609 45.1141C40.55 44.4003 40.5423 43.6778 40.4379 42.9661C40.196 41.8966 39.6642 40.9144 38.9009 40.1271C38.2527 39.4812 37.4629 38.9952 36.5941 38.7077C35.7253 38.4203 34.8015 38.3393 33.8959 38.4711Z" fill="#C0C5CE"/>
<path d="M19.1479 39.18C18.7024 39.3001 18.294 39.5297 17.9599 39.8481C17.6177 40.2253 17.4178 40.7102 17.3949 41.219C17.2289 42.767 17.8949 44.3321 19.4399 46.0511C19.7029 46.3421 20.5819 47.29 21.3879 48.151C25.6319 52.686 26.8199 54.3511 28.4989 58.0901C28.7449 58.6381 29.1839 59.5981 29.4759 60.2201C30.0338 61.3474 30.4999 62.5179 30.8699 63.7201C31.5209 66.0534 31.8684 68.4608 31.9039 70.883C31.9379 71.403 31.9839 71.94 32.0179 72.083C32.0671 72.3995 32.1614 72.7073 32.2979 72.997C32.6263 72.0481 32.8765 71.0738 33.0459 70.084C33.3018 68.7195 33.3977 67.3298 33.3319 65.943C33.3551 64.0156 33.255 62.0887 33.0319 60.174C32.441 55.437 30.8208 50.8866 28.2849 46.8421C25.9599 43.1061 23.7779 40.9021 21.1279 39.6051C20.5466 39.2153 19.838 39.0631 19.1479 39.18Z" fill="#C0C5CE"/>
<path d="M44.149 48.205C43.995 48.234 43.704 48.296 43.503 48.348C43.302 48.4 43.126 48.439 43.115 48.439C42.8991 48.8207 42.7213 49.2226 42.584 49.639C42.167 50.901 42.83 52.455 44.497 54.123C47.2712 56.6391 50.4892 58.6171 53.987 59.956C56.557 61.024 57.974 61.333 63.229 61.984C64.017 62.084 65.0799 62.224 65.5999 62.298C66.2545 62.4322 66.9199 62.5069 67.588 62.521C67.674 62.51 67.839 62.481 67.959 62.464C68.079 62.447 68.17 62.407 68.17 62.384C67.2969 61.9313 66.3898 61.5475 65.4569 61.236C64.0399 60.736 62.064 60.019 61.544 59.808C59.2877 58.8441 57.152 57.6191 55.1809 56.158C53.5831 54.9428 52.0819 53.6054 50.6909 52.158C49.5401 50.8875 48.2292 49.7719 46.791 48.839C46.2353 48.4637 45.5915 48.2393 44.9229 48.188C44.6649 48.1749 44.4062 48.1806 44.149 48.205Z" fill="#C0C5CE"/>
</svg>
