<svg width="79" height="67" viewBox="0 0 79 67" fill="none" xmlns="http://www.w3.org/2000/svg">
<path d="M39.1621 15.052C43.0678 15.052 46.2341 11.8857 46.2341 7.97996C46.2341 4.0742 43.0678 0.907959 39.1621 0.907959C35.2563 0.907959 32.0901 4.0742 32.0901 7.97996C32.0901 11.8857 35.2563 15.052 39.1621 15.052Z" fill="#C0C5CE"/>
<path fill-rule="evenodd" clip-rule="evenodd" d="M1.00006 19.973C1.00006 19.973 29.2081 16.583 31.8441 16.96C34.7151 17.369 36.313 18.467 36.313 20.09C36.313 21.713 34.872 22.99 31.989 23.335C29.419 23.645 0.99707 20.205 0.99707 19.974L1.00006 19.973Z" fill="#C0C5CE" stroke="#C0C5CE" stroke-width="0.569"/>
<path fill-rule="evenodd" clip-rule="evenodd" d="M42.8451 38.142C42.8451 38.142 62.2301 31.467 54.3721 27.763C48.9721 25.217 45.8721 24.176 45.1001 23.407C43.5891 21.907 42.8191 20.69 43.9001 18.99C44.9811 17.29 46.5781 16.73 49.2391 17.917C50.5031 18.481 64.0961 25.926 62.0611 31.443C60.2791 36.276 42.9121 38.029 42.8401 38.143L42.8451 38.142Z" fill="#C0C5CE" stroke="#C0C5CE" stroke-width="0.634"/>
<path fill-rule="evenodd" clip-rule="evenodd" d="M19.392 45.083C29.47 47.346 34.6321 46.664 35.9661 44.708C37.3001 42.752 36.7831 40.967 34.0661 39.508C31.3491 38.049 29.166 37.347 23.236 37.655C17.306 37.963 15.467 38.718 14.145 41.26C12.8295 43.783 12.4903 46.7024 13.1921 49.46C13.8921 52.16 18.2461 66.097 18.2461 66.097L19.392 45.083Z" fill="#C0C5CE" stroke="#C0C5CE" stroke-width="1.836"/>
<path fill-rule="evenodd" clip-rule="evenodd" d="M39.3871 41.104C37.9581 43.124 39.8051 46.165 41.2541 47.346C45.1341 50.51 70.5361 63.105 78.0001 65.746C78.0001 65.746 54.1351 45.411 47.4521 41.322C43.3611 38.822 40.8411 39.048 39.3871 41.104Z" fill="#C0C5CE" stroke="#C0C5CE" stroke-width="1.615"/>
</svg>
