<svg xmlns="http://www.w3.org/2000/svg" width="146.458" height="111.977" viewBox="0 0 146.458 111.977">
  <g id="undraw_book_lover_re_rwjy" transform="translate(0)">
    <path id="Path_894" data-name="Path 894" d="M856.086,607.478l.25-5.629a18.184,18.184,0,0,1,8.48-2.147c-4.073,3.33-3.564,9.749-6.325,14.226a10.936,10.936,0,0,1-8.019,5.053l-3.408,2.087a18.324,18.324,0,0,1,3.862-14.849,17.687,17.687,0,0,1,3.253-3.022C855,605.35,856.086,607.478,856.086,607.478Z" transform="translate(-719.537 -510.95)" fill="#f2f2f2"/>
    <path id="Path_895" data-name="Path 895" d="M618.8,662.6c-1.736-.124-2.189.219-4.815,0h-4.815l.626-11.523,7.58,3.038,37.67.925-.022.064c-.017.049-1.689,4.942-.382,6.794l.054.077h-.106l-34.556.317C619.66,662.3,619.177,662.63,618.8,662.6Z" transform="translate(-533.936 -551.083)" fill="#f2f2f2"/>
    <path id="Path_896" data-name="Path 896" d="M618.083,660.035c-3.353-.239-6.826,1.065-9.724-.407l-2.317.141-.007-.019c-.018-.054-1.112-8.664,1.1-12l.1-.147.076.791-.729,10.726,1.616-.54c3.926,1.848,8.595.628,13.088.611l30.578-.113a1.12,1.12,0,0,1,1.191.976l0,.053-33.126,0Q619,660.1,618.083,660.035Z" transform="translate(-531.263 -548.364)" fill="#ccc"/>
    <path id="Path_897" data-name="Path 897" d="M391.709,470.79l-34.411-.684-.035-.013-8.13-3.047.154-.41,8.1,3.034,34.337.682Z" transform="translate(-272.72 -364.507)" fill="#e6e6e6"/>
    <path id="Path_898" data-name="Path 898" d="M390.87,479.209l-34.411-.684-.035-.013-8.13-3.047.154-.41,8.1,3.034,34.336.682Z" transform="translate(-272.064 -371.083)" fill="#e6e6e6"/>
    <path id="Path_899" data-name="Path 899" d="M390.031,487.627l-34.411-.684-.035-.013-8.13-3.047.154-.41,8.1,3.034,34.336.682Z" transform="translate(-271.409 -377.659)" fill="#e6e6e6"/>
    <path id="Path_900" data-name="Path 900" d="M622.075,652.682a23.027,23.027,0,0,1-9.134-2.577l-2.385-1.265.062-.625a.378.378,0,0,1,.4-.307l.21,0,32.092.472a18.808,18.808,0,0,1,6.157,1.117l6.992,2.538,0,.037a1.279,1.279,0,0,1-1.353,1.036l-31.611-.37Q622.787,652.733,622.075,652.682Z" transform="translate(-535.016 -548.604)" fill="#e6e6e6"/>
    <path id="Path_901" data-name="Path 901" d="M392.4,458.176h-.007l-38.484-.882-.027-.012-6.938-3.213.07-.108.211,0,6.748,3.127,38.127.873.306.007Z" transform="translate(-271.006 -354.606)" fill="#ccc"/>
    <path id="Path_902" data-name="Path 902" d="M640.375,648.553l-.488-.007-11.029-.163-.523-.007c2.52,2.683,8.092,3.354,16.259,2.315Z" transform="translate(-548.905 -548.97)" fill="#ccc"/>
    <path id="Path_903" data-name="Path 903" d="M518.052,152.183l.673,1.565-1.1,5.558-11.218-1.56.089-6.778.225-1.484Z" transform="translate(-395.574 -116.768)" fill="#ffb6b6"/>
    <path id="Path_904" data-name="Path 904" d="M573.057,456.873h-2.475l-1.178-9.546h3.653Z" transform="translate(-444.782 -349.424)" fill="#ffb6b6"/>
    <path id="Path_905" data-name="Path 905" d="M817.87,681.465a1.058,1.058,0,0,0,1.057,1.057h4.708l.812-1.675.315,1.675h1.775l-.5-5.984-.807-.047-2.711-.161-.437-.027V678l-3.758,2.6A1.059,1.059,0,0,0,817.87,681.465Z" transform="translate(-696.957 -570.785)" fill="#2f2e41"/>
    <path id="Path_906" data-name="Path 906" d="M467.547,389.793h-2.475l-1.456-14.054,4.65-.278Z" transform="translate(-362.147 -293.286)" fill="#ffb6b6"/>
    <path id="Path_907" data-name="Path 907" d="M713.352,631.465a1.058,1.058,0,0,0,1.057,1.057h4.709l.812-1.675.315,1.675h1.775l-.5-5.984-.72-.042-2.758-.166-.476-.027V628l-3.758,2.6A1.058,1.058,0,0,0,713.352,631.465Z" transform="translate(-615.314 -531.728)" fill="#2f2e41"/>
    <path id="Path_908" data-name="Path 908" d="M750.475,432.331h-.01l-.476-15.521a4.059,4.059,0,0,0-.053-3.835l-.068-.123.177-.819a5.218,5.218,0,0,0-.3-3.14l-.444-14.479c1.586-10.281-5.974-16.986-5.974-16.986l.7-5.388-12.228.278.208,5.111-2.431,8.354c-1.28,12.466-9.891,20.3-8.583,32.223a.225.225,0,0,1-.015.1,3.044,3.044,0,0,0,.246,2.456.93.93,0,0,1,.111.3c.27,2.09.3-.554.662,1.518l-.07.035a.588.588,0,0,0-.24.775c.118.341.416.548.667.462l6.537.07a.588.588,0,0,0,.24-.775c-.118-.341-.416-.548-.667-.462l-.407.206.68-2.226.238-.223a1.037,1.037,0,0,0-.132-1.62h0l.678-3.617-.1-2.736.2-3.1,8.577-12.428,3.47,17.167,3.545,18.6a.65.65,0,0,0-.2.6.674.674,0,0,0,.671.533h4.812a.656.656,0,0,0,.631-.83A.663.663,0,0,0,750.475,432.331Z" transform="translate(-621.149 -333.113)" fill="#2f2e41"/>
    <path id="Path_909" data-name="Path 909" d="M793.54,213.063a6.054,6.054,0,1,1-10.413-4.2l.029-.029c.048-.051.1-.1.148-.15h0v0a1.283,1.283,0,0,0,.191-.172,3.205,3.205,0,0,1,3.988-1.5C790.717,207.87,793.54,209.718,793.54,213.063Z" transform="translate(-668.493 -204.059)" fill="#2f2e41"/>
    <path id="Path_910" data-name="Path 910" d="M684.8,215.812a2.218,2.218,0,0,0,2.512,2.292l15.613,12.814,2.385-4.192-16.1-11.277a2.23,2.23,0,0,0-4.413.364Z" transform="translate(-593.007 -209.399)" fill="#ffb6b6"/>
    <path id="Path_911" data-name="Path 911" d="M742.824,261.635s0-.461-2.487-.444c-3.081.022-11.566-4.4-10.824-8.567a1.742,1.742,0,0,1-2.077-.5l4.131-3.977c1.3.088,1.309.955,1.2,1.453l3.32,1.319,8.646,4.968-1.527,4.99Z" transform="translate(-626.316 -236.339)" fill="#8a57dc"/>
    <ellipse id="Ellipse_102" data-name="Ellipse 102" cx="5.077" cy="5.077" rx="5.077" ry="5.077" transform="translate(112.424 5.328)" fill="#ffb7b7"/>
    <path id="Path_912" data-name="Path 912" d="M764.679,290.544a2.038,2.038,0,0,0,.1,2.566,2.257,2.257,0,0,0,.236.826.923.923,0,0,0,.1.146.332.332,0,0,0,.022.032,1.687,1.687,0,0,0,.881.593l9.293,2.594,1.229.342.216.06.119-1.678a1.5,1.5,0,0,0,.33-1.929l-.171-.283,1-2.683.1-.266,2.544-6.848,0-.457,0-.472.025-3.291a6.714,6.714,0,0,0-2.656-5.356,6.6,6.6,0,0,0-2.544-1.191l-.02,0-1.005-1.353-4.078.407-.338.692-.409.834-2.956,1.76-1.01,2.348L765,279.526a4.326,4.326,0,0,0-1.869,2.9c-.387,2.467,1.34,4.937,1.547,5.22l.052,2.832Z" transform="translate(-654.156 -254.888)" fill="#8a57dc"/>
    <path id="Path_913" data-name="Path 913" d="M785.349,220.465l-.138-.024c-.792-.14-1.584-.279-2.373-.421l-.073-1.79-.956,1.6a8.027,8.027,0,0,1-6.144-.588,17.324,17.324,0,0,1-1.841-1.015c-.195-3.027,1.029-4.964,3.306-4.761.083.008.143-.077.216-.114h0v0c.124-.058.249-.114.375-.165a5.592,5.592,0,0,1,5.87,1.138A6.681,6.681,0,0,1,785.349,220.465Z" transform="translate(-662.535 -208.729)" fill="#2f2e41"/>
    <path id="Path_914" data-name="Path 914" d="M797.081,221.666a10.326,10.326,0,0,0-7.95-6.909c-.008,0-.032-.012-.063-.027s-.044-.024-.068-.036c.073-.041.143-.078.216-.114h0v0c.063-.058.126-.116.191-.172l.184.007S796.062,213.389,797.081,221.666Z" transform="translate(-674.406 -209.955)" fill="#fd6584"/>
    <path id="Path_915" data-name="Path 915" d="M825.251,383.848a.856.856,0,0,1-.879.142,2.037,2.037,0,0,1-.751-.549,7.077,7.077,0,0,1-1.733-3.123l.278-.5a2.72,2.72,0,0,1,1.638-2.993,1.676,1.676,0,0,1,1.033-.09.98.98,0,0,1,.712.706c.107.53-.334,1.008-.781,1.313a5.559,5.559,0,0,1-2.617.936,9.016,9.016,0,0,1,2.9,2.606,2.136,2.136,0,0,1,.384.754.859.859,0,0,1-.19.794Z" transform="translate(-700.095 -336.751)" fill="#2f2e41"/>
    <path id="f02c4e45-f306-4b42-b3ad-5ddd3016d7d2" d="M543.086,703.6h85.2a.273.273,0,0,0,0-.546h-85.2a.273.273,0,1,0,0,.546Z" transform="translate(-482.1 -591.679)" fill="#ccc"/>
    <path id="Path_916" data-name="Path 916" d="M615.081,362.572v.143c-.307-.36-.62-.716-.93-1.073l-.391-.446q-.828-.939-1.665-1.872c-.561-.62-1.122-1.24-1.69-1.857-.136-.149-.273-.3-.412-.446a3.213,3.213,0,0,0-.363-.347,1.345,1.345,0,0,0-.443-.245,1.11,1.11,0,0,0-.57-.006c-.214.049-.419.127-.626.192s-.425.139-.639.208l-1.28.419a.042.042,0,0,1-.055-.023v0a.043.043,0,0,1,.031-.059l.322-.1c.431-.143.859-.282,1.29-.422.214-.071.428-.139.642-.208a1.916,1.916,0,0,1,.62-.124,1.4,1.4,0,0,1,.911.428c.133.124.254.254.375.388l.428.465q.86.939,1.708,1.885t1.686,1.9l.121.14C614.464,361.859,614.771,362.216,615.081,362.572Z" transform="translate(-531.468 -320.82)" fill="#fff"/>
    <path id="Path_917" data-name="Path 917" d="M620.084,359.413a1.048,1.048,0,0,0-.452-.336l-.176.006a18.615,18.615,0,0,0,5.325,5.419Z" transform="translate(-541.969 -322.988)" fill="#fff"/>
    <path id="Path_918" data-name="Path 918" d="M372.4,320.586l-7.023-37.6a2.785,2.785,0,0,0-2.645-2.254q-.085,0-.17,0l-4.784.172-.515.019-2.388.086-.515.018-1.536.055-30.969,1.112c-.047,0-.095,0-.141,0l-6.94-.145-2.568-.053h-.082l-1.9-.04-16.517-.343-4.379-.092-2.159-.044-.517-.011-2.462-.05-.516-.011-2.519-.052-.516-.011-2.767-.058-.434-.009-2.468-.052-.39-.008h-.057a2.778,2.778,0,0,0-2.728,2.32l-6.352,39.02a2.763,2.763,0,0,0,2.727,3.208h36.476a2.528,2.528,0,0,1,1.492.492l.692.512a2.788,2.788,0,0,0,1.644.543,42.118,42.118,0,0,1,21.5,0,2.747,2.747,0,0,0,1.955-.81,2.507,2.507,0,0,1,1.641-.731l36.259-1.911a2.763,2.763,0,0,0,2.572-3.267Z" transform="translate(-265.414 -261.788)" fill="#ccc"/>
    <path id="Path_919" data-name="Path 919" d="M418.141,261.848a4.81,4.81,0,0,1-4.979,4.631c-2.106-.074-4.618-.112-7.345-.055-8.906.19-20.094,1.416-26.824,5.824a4.808,4.808,0,0,1-2.856.784c-.074,0-.147-.009-.221-.015a4.8,4.8,0,0,1-2.81-1.245c-3.708-3.392-12.21-7.5-31.674-7.789-.081,0-.16,0-.239-.009a4.807,4.807,0,0,1-4.5-5.1l1.913-30.358.287-4.55.5-7.96a3.161,3.161,0,0,1,3.152-2.961h.02l11.6.068a47.737,47.737,0,0,1,12.138,1.867,20.972,20.972,0,0,1,3.187,1.283,12.249,12.249,0,0,1,3.708,2.769,4.185,4.185,0,0,0,2.517,1.359,4.041,4.041,0,0,0,.455.042,4.17,4.17,0,0,0,2.523-.722c7.575-5.075,23.011-5.461,31.536-5.242a4.8,4.8,0,0,1,4.675,4.445l.346,4.528.344,4.515,1.983,26.1.552,7.26A4.986,4.986,0,0,1,418.141,261.848Z" transform="translate(-321.088 -208.913)" fill="#f2f2f2"/>
    <path id="Path_920" data-name="Path 920" d="M369.508,253.739a29.517,29.517,0,0,1,21.4,1.5,28.18,28.18,0,0,1,5.319,3.276c.466.365,1.128-.288.658-.658a30.463,30.463,0,0,0-21.384-6.271,29.262,29.262,0,0,0-6.243,1.254C368.693,253.023,368.935,253.921,369.508,253.739Z" transform="translate(-346.279 -238.93)" fill="#3f3d56"/>
    <path id="Path_921" data-name="Path 921" d="M544.722,270.337a29.515,29.515,0,0,1,21.34-2.221,28.133,28.133,0,0,1,5.8,2.307c.528.282,1-.521.469-.8a30.5,30.5,0,0,0-22.165-2.417,29.248,29.248,0,0,0-5.916,2.331C543.722,269.812,544.192,270.615,544.722,270.337Z" transform="translate(-483.043 -250.39)" fill="#3f3d56"/>
    <path id="Path_922" data-name="Path 922" d="M544.722,298.666a29.514,29.514,0,0,1,21.34-2.221,28.134,28.134,0,0,1,5.8,2.307c.528.282,1-.521.469-.8a30.5,30.5,0,0,0-22.165-2.417,29.251,29.251,0,0,0-5.916,2.331c-.53.278-.061,1.082.469.8Z" transform="translate(-483.043 -272.519)" fill="#3f3d56"/>
    <path id="Path_923" data-name="Path 923" d="M572.575,326.666a.4.4,0,0,0-.229-.386,30.5,30.5,0,0,0-17.557-3.289c-.038,0-.073.009-.114.012h0a.96.96,0,0,0-.111.017,29.381,29.381,0,0,0-10.3,3.174.469.469,0,0,0-.229.4v11.566a.469.469,0,0,0,.589.446c.143-.041.285-.08.431-.118a46.08,46.08,0,0,1,9.926-1.553l.217-.009a51.994,51.994,0,0,1,8.188.294,1.665,1.665,0,0,1,.17.018c.14.015.282.032.422.05.056.006.109.012.161.021.543.068,1.082.146,1.622.229q1.17.187,2.34.416c.049.009.1.021.149.03,1.252.249,2.5.537,3.738.856a.471.471,0,0,0,.589-.449V326.684A.035.035,0,0,0,572.575,326.666Z" transform="translate(-483.056 -294.651)" fill="#3f3d56"/>
    <path id="Path_924" data-name="Path 924" d="M589.083,326a1.529,1.529,0,0,0-1.1-.1,1.3,1.3,0,0,0-.73.686,3.294,3.294,0,0,0-.24.944c-.019.128-.021.289.108.349a.273.273,0,0,0,.276-.055.824.824,0,0,0,.162-.226,2.454,2.454,0,0,1,2.073-1.127l.343.137a4.074,4.074,0,0,0-.9-.612Z" transform="translate(-516.622 -297.029)" fill="#ff6582"/>
    <path id="Path_925" data-name="Path 925" d="M588.341,335.243a2.015,2.015,0,0,0-1.077-.939,2.3,2.3,0,0,0-1.66.437,48.521,48.521,0,0,0-4.3,2.823v.015l3.212-.2a6.116,6.116,0,0,0,2.257-.427,2.131,2.131,0,0,1,.806-.3,1.348,1.348,0,0,1,.934.45c1.48,1.4,1.909,3.549,3.569,4.781A45.1,45.1,0,0,0,588.341,335.243Z" transform="translate(-512.164 -303.606)" fill="#fff"/>
    <path id="Path_926" data-name="Path 926" d="M572.115,382.986,571.9,383c-.518-.186-1.048-.35-1.584-.493-.347-.093-.7-.177-1.054-.248-.4-.087-.8-.155-1.206-.214a19.288,19.288,0,0,0-2.316-.2.042.042,0,1,1,0-.084c.1,0,.2,0,.295.009a19.319,19.319,0,0,1,2.319.226c.4.065.8.143,1.2.229.36.081.719.17,1.073.27Q571.378,382.71,572.115,382.986Z" transform="translate(-499.971 -340.708)" fill="#fff"/>
    <path id="Path_927" data-name="Path 927" d="M580.407,373.767c-.053-.009-.105-.016-.161-.022-.214-.177-.431-.344-.657-.508-.282-.2-.573-.4-.871-.577a15.462,15.462,0,0,0-2.059-1.048,20.51,20.51,0,0,0-3.478-1.1,34.606,34.606,0,0,0-4.114-.645c-1.382-.143-2.771-.229-4.16-.316-.059,0-.062-.09,0-.087.173.012.347.022.524.034,1.4.087,2.809.186,4.2.344a32.049,32.049,0,0,1,4.108.713,19.977,19.977,0,0,1,3.367,1.156,15.3,15.3,0,0,1,1.811.964c.369.232.725.481,1.066.744C580.128,373.534,580.271,373.646,580.407,373.767Z" transform="translate(-499.323 -331.104)" fill="#fff"/>
    <path id="Path_928" data-name="Path 928" d="M579.331,374.725a1.658,1.658,0,0,0-.17-.019c-.065-.053-.133-.1-.2-.152a14.2,14.2,0,0,0-1.491-.933,15.8,15.8,0,0,0-1.441-.691,20.258,20.258,0,0,0-3.478-1.1,34.6,34.6,0,0,0-4.114-.645c-1.383-.143-2.771-.229-4.16-.316-.059-.006-.059-.09,0-.087.177.012.35.022.524.034,1.4.087,2.809.186,4.2.344a32.062,32.062,0,0,1,4.108.713,19.877,19.877,0,0,1,3.366,1.156q.614.279,1.2.608A12.666,12.666,0,0,1,579.331,374.725Z" transform="translate(-498.83 -332.134)" fill="#fff"/>
    <path id="Path_929" data-name="Path 929" d="M584.672,343.673l-.149-.031c-.056-.059-.109-.121-.161-.183q-.4-.46-.791-.93c-1.026-1.221-2-2.48-2.917-3.763q-1.181-1.646-2.241-3.357c-.338-.539-.664-1.085-.983-1.637q-.372-.642-.725-1.287c-.068-.124-.133-.248-.2-.372-.152-.291-.3-.586-.465-.874a2.473,2.473,0,0,0-.75-.893,1.1,1.1,0,0,0-.533-.183,1.61,1.61,0,0,0-.769.2,25.056,25.056,0,0,0-4.876,2.991,23.564,23.564,0,0,0-3.962,3.915c-.037.043-.118,0-.084-.044.14-.174.282-.347.425-.518a23.776,23.776,0,0,1,3.748-3.562l.012-.009c.121-.1.242-.189.366-.279a25.35,25.35,0,0,1,2.393-1.562q.632-.367,1.293-.7c.108-.056.22-.112.332-.164s.223-.108.335-.161a1.825,1.825,0,0,1,.71-.2c.862-.013,1.305.855,1.612,1.441.1.183.2.366.292.549.372.691.76,1.379,1.163,2.058.245.422.5.84.756,1.256.369.592.747,1.178,1.141,1.761a0,0,0,0,0,0,0h0c.456.688.93,1.364,1.42,2.037q1.26,1.725,2.641,3.373Q584.183,343.122,584.672,343.673Z" transform="translate(-499.478 -300.335)" fill="#fff"/>
    <path id="Path_930" data-name="Path 930" d="M587.848,325.369l-.086.037a2.339,2.339,0,0,0-1.89-1.144,2.245,2.245,0,0,0-2.485,1.885,1.866,1.866,0,0,0,.377,1.3l-.08.047a1.944,1.944,0,0,1-.393-1.353,2.338,2.338,0,0,1,2.588-1.963A2.437,2.437,0,0,1,587.848,325.369Z" transform="translate(-513.714 -295.721)" fill="#ff6582"/>
    <path id="Path_931" data-name="Path 931" d="M568.044,339.411a2.289,2.289,0,0,0-2.085.133,32.866,32.866,0,0,1,3.383.7C568.88,340.006,568.519,339.629,568.044,339.411Z" transform="translate(-500.18 -307.478)" fill="#fff"/>
    <path id="Path_932" data-name="Path 932" d="M565.482,340.69l-.125.091q.064-.048.132-.09Z" transform="translate(-499.71 -308.626)" fill="#fff"/>
    <path id="Path_933" data-name="Path 933" d="M555.6,338.084l-.15-.149a4.357,4.357,0,0,0-1.368-1,2.19,2.19,0,0,0-.831-.172,2.623,2.623,0,0,0-.863.168c-.13.046-.257.1-.382.154-.143.064-.284.132-.423.2q-.394.194-.777.4-.763.42-1.478.9-.371.251-.726.518-.331.248-.648.51c-.045.037-.113-.023-.068-.06l.168-.137q.239-.192.486-.377.449-.338.922-.649.735-.485,1.521-.9.393-.209.8-.4c.081-.039.164-.076.246-.112a4.239,4.239,0,0,1,.586-.212,2.33,2.33,0,0,1,.885-.077,2.5,2.5,0,0,1,.817.251,5.359,5.359,0,0,1,1.354,1.08C555.712,338.064,555.645,338.125,555.6,338.084Z" transform="translate(-486.054 -305.493)" fill="#fff"/>
    <path id="Path_934" data-name="Path 934" d="M369.508,282.068a29.517,29.517,0,0,1,21.4,1.5,28.183,28.183,0,0,1,5.319,3.276c.466.365,1.128-.288.658-.658a30.463,30.463,0,0,0-21.384-6.271,29.262,29.262,0,0,0-6.243,1.254C368.693,281.352,368.935,282.25,369.508,282.068Z" transform="translate(-346.279 -261.059)" fill="#3f3d56"/>
    <path id="Path_935" data-name="Path 935" d="M369.508,310.4a29.517,29.517,0,0,1,21.4,1.5,28.174,28.174,0,0,1,5.319,3.276c.466.365,1.128-.288.658-.658a30.463,30.463,0,0,0-21.384-6.271,29.259,29.259,0,0,0-6.243,1.254C368.693,309.68,368.935,310.578,369.508,310.4Z" transform="translate(-346.279 -283.187)" fill="#3f3d56"/>
    <path id="Path_936" data-name="Path 936" d="M369.508,338.724a29.517,29.517,0,0,1,21.4,1.5,28.178,28.178,0,0,1,5.319,3.276c.466.365,1.128-.288.658-.658a30.463,30.463,0,0,0-21.384-6.271,29.263,29.263,0,0,0-6.243,1.254C368.693,338.008,368.935,338.906,369.508,338.724Z" transform="translate(-346.279 -305.315)" fill="#3f3d56"/>
    <path id="Path_937" data-name="Path 937" d="M369.508,367.052a29.517,29.517,0,0,1,21.4,1.5,28.177,28.177,0,0,1,5.319,3.276c.466.365,1.128-.288.658-.658A30.463,30.463,0,0,0,375.5,364.9a29.266,29.266,0,0,0-6.243,1.254C368.693,366.336,368.935,367.234,369.508,367.052Z" transform="translate(-346.279 -327.443)" fill="#3f3d56"/>
    <path id="Path_938" data-name="Path 938" d="M369.508,395.38a29.518,29.518,0,0,1,21.4,1.5,28.176,28.176,0,0,1,5.319,3.276c.466.365,1.128-.288.658-.658a30.463,30.463,0,0,0-21.384-6.271,29.263,29.263,0,0,0-6.243,1.254C368.693,394.665,368.935,395.563,369.508,395.38Z" transform="translate(-346.279 -349.572)" fill="#3f3d56"/>
    <path id="Path_939" data-name="Path 939" d="M475.2,223.162v14.867c0,.3-.516.543-1.212.611a.048.048,0,0,0-.018,0c-.116.009-.239.015-.363.015a3.188,3.188,0,0,1-1.127-.184l-.1-.042c-.031-.017-.063-.033-.094-.05-.173-.1-.274-.223-.274-.352v-16.15A20.977,20.977,0,0,1,475.2,223.162Z" transform="translate(-426.796 -215.818)" fill="#8a57dc"/>
    <rect id="Rectangle_104" data-name="Rectangle 104" width="0.455" height="53.016" transform="translate(54.628 10.792)" fill="#e6e6e6"/>
    <path id="Path_940" data-name="Path 940" d="M734.578,344.31a2.218,2.218,0,0,0,1.937-2.8l9.45-4.411,5.689-9.2-4.472-1.805-3.838,7.416-9.714,6.473a2.23,2.23,0,0,0,.948,4.325Z" transform="translate(-629.983 -297.225)" fill="#ffb6b6"/>
    <path id="Path_941" data-name="Path 941" d="M792.7,293.074s1.114.364-.109,2.524c-.979,1.729-5.746,11.691-7.692,13.647a1.742,1.742,0,0,1-.217,2.125l-4.491-3.564c-.086-1.3.772-1.425,1.28-1.381l1.033-3.662,3.6-9.034,5.791-.93Z" transform="translate(-667.522 -271.215)" fill="#8a57dc"/>
    <path id="Path_942" data-name="Path 942" d="M820.106,199.112c.212-.859,1.753-1.493-.886-2.691-.641-.291-.614-1.293-1.156-1.742a1.875,1.875,0,0,0-1.965-.343,1.92,1.92,0,0,0-.947,1.538,5.664,5.664,0,0,0,.214,1.863l-.051.075,3.136,2.4c.384.294.886.6,1.317.381C820.256,200.344,819.974,199.644,820.106,199.112Z" transform="translate(-694.828 -194.186)" fill="#2f2e41"/>
  </g>
</svg>
