<svg width="78" height="75" viewBox="0 0 78 75" fill="none" xmlns="http://www.w3.org/2000/svg">
<path d="M50.4361 4.755C53.0171 2.506 56.4111 1.617 59.6971 1.005C59.0952 1.72459 58.3744 2.33576 57.5661 2.81201C55.7021 4.18001 53.7761 5.658 52.7481 7.792C52.131 8.89139 51.5745 10.0238 51.0811 11.184C50.8881 12.712 52.0661 13.898 52.9221 15.013C53.8328 16.0797 54.8083 17.0893 55.8431 18.036C56.6321 19.065 56.0631 20.484 55.2221 21.292C54.8747 21.5359 54.4785 21.7013 54.0608 21.777C53.6431 21.8526 53.214 21.8366 52.8031 21.73C51.0781 21.322 49.8871 19.868 48.9091 18.486C47.4841 16.461 46.1281 14.168 46.1091 11.619C46.4781 8.842 48.3981 6.547 50.4361 4.755Z" stroke="black" stroke-width="0.1" stroke-miterlimit="10"/>
<path d="M50.4361 4.755C53.0171 2.506 56.4111 1.617 59.6971 1.005C59.0952 1.72459 58.3744 2.33576 57.5661 2.81201C55.7021 4.18001 53.7761 5.658 52.7481 7.792C52.131 8.89139 51.5745 10.0238 51.0811 11.184C50.8881 12.712 52.0661 13.898 52.9221 15.013C53.8328 16.0797 54.8083 17.0893 55.8431 18.036C56.6321 19.065 56.0631 20.484 55.2221 21.292C54.8747 21.5359 54.4785 21.7013 54.0608 21.777C53.6431 21.8526 53.214 21.8366 52.8031 21.73C51.0781 21.322 49.8871 19.868 48.9091 18.486C47.4841 16.461 46.1281 14.168 46.1091 11.619C46.4781 8.842 48.3981 6.547 50.4361 4.755Z" fill="#C0C5CE"/>
<path d="M44.9591 7.809C46.1077 6.76325 47.3354 5.80774 48.6311 4.951C48.4863 5.3357 48.302 5.70434 48.0811 6.051C43.7501 12.686 39.2941 19.24 35.0401 25.926C33.4898 28.0071 31.8319 30.0058 30.0731 31.914C29.372 32.7674 28.4847 33.4489 27.4793 33.9062C26.4739 34.3635 25.3772 34.5844 24.2731 34.552C23.3241 34.763 22.7881 33.812 22.5871 33.034C22.3869 31.83 22.5946 30.5936 23.1771 29.521C24.1192 27.7078 25.4087 26.0976 26.9721 24.782C28.8581 23.02 30.5861 21.098 32.4801 19.344C36.6041 15.457 40.7841 11.635 44.9591 7.809Z" stroke="black" stroke-width="0.1" stroke-miterlimit="10"/>
<path d="M44.9591 7.809C46.1077 6.76325 47.3354 5.80774 48.6311 4.951C48.4863 5.3357 48.302 5.70434 48.0811 6.051C43.7501 12.686 39.2941 19.24 35.0401 25.926C33.4898 28.0071 31.8319 30.0058 30.0731 31.914C29.372 32.7674 28.4847 33.4489 27.4793 33.9062C26.4739 34.3635 25.3772 34.5844 24.2731 34.552C23.3241 34.763 22.7881 33.812 22.5871 33.034C22.3869 31.83 22.5946 30.5936 23.1771 29.521C24.1192 27.7078 25.4087 26.0976 26.9721 24.782C28.8581 23.02 30.5861 21.098 32.4801 19.344C36.6041 15.457 40.7841 11.635 44.9591 7.809Z" fill="#C0C5CE"/>
<path d="M34.27 11.531C35.029 10.772 35.432 9.712 36.304 9.062C35.825 10.616 35.063 12.062 34.436 13.562C32.973 16.692 30.622 19.639 27.323 20.926C25.1479 21.7177 22.8336 22.055 20.523 21.917C18.343 22.1094 16.1705 21.4747 14.437 20.139C13.544 19.406 12.489 18.511 12.537 17.239C12.564 16.405 13.411 15.984 14.079 15.699C15.219 15.327 16.327 15.911 17.356 16.339C20.768 17.599 24.674 18.197 28.135 16.774C30.754 15.835 32.448 13.502 34.27 11.531Z" stroke="black" stroke-width="0.1" stroke-miterlimit="10"/>
<path d="M34.27 11.531C35.029 10.772 35.432 9.712 36.304 9.062C35.825 10.616 35.063 12.062 34.436 13.562C32.973 16.692 30.622 19.639 27.323 20.926C25.1479 21.7177 22.8336 22.055 20.523 21.917C18.343 22.1094 16.1705 21.4747 14.437 20.139C13.544 19.406 12.489 18.511 12.537 17.239C12.564 16.405 13.411 15.984 14.079 15.699C15.219 15.327 16.327 15.911 17.356 16.339C20.768 17.599 24.674 18.197 28.135 16.774C30.754 15.835 32.448 13.502 34.27 11.531Z" fill="#C0C5CE"/>
<path d="M2.95204 18.027C3.42154 17.7549 3.9635 17.6342 4.50409 17.6813C5.04468 17.7283 5.55762 17.9409 5.97304 18.29C6.42795 19.3293 6.74821 20.4225 6.92604 21.543C7.25604 24.962 7.40504 28.403 7.96004 31.797C9.12604 31.936 10.082 31.137 11.123 30.762C13.196 29.874 15.458 29.587 17.552 28.762C18.7944 28.2662 20.0794 27.885 21.391 27.623C21.1635 28.1189 20.8312 28.5597 20.417 28.915C17.027 31.969 13.209 34.752 8.74404 35.958C7.94222 36.1436 7.11162 36.1687 6.30004 36.032C5.09242 35.1842 4.10302 34.0622 3.41304 32.758C1.69235 29.6435 0.805683 26.1371 0.839042 22.579C0.828916 21.7106 1.01346 20.851 1.37911 20.0633C1.74476 19.2756 2.28223 18.5798 2.95204 18.027Z" stroke="black" stroke-width="0.1" stroke-miterlimit="10"/>
<path d="M2.95204 18.027C3.42154 17.7549 3.9635 17.6342 4.50409 17.6813C5.04468 17.7283 5.55762 17.9409 5.97304 18.29C6.42795 19.3293 6.74821 20.4225 6.92604 21.543C7.25604 24.962 7.40504 28.403 7.96004 31.797C9.12604 31.936 10.082 31.137 11.123 30.762C13.196 29.874 15.458 29.587 17.552 28.762C18.7944 28.2662 20.0794 27.885 21.391 27.623C21.1635 28.1189 20.8312 28.5597 20.417 28.915C17.027 31.969 13.209 34.752 8.74404 35.958C7.94222 36.1436 7.11162 36.1687 6.30004 36.032C5.09241 35.1842 4.10302 34.0622 3.41304 32.758C1.69235 29.6435 0.805683 26.1371 0.839042 22.579C0.828916 21.7106 1.01346 20.851 1.37911 20.0633C1.74476 19.2756 2.28223 18.5798 2.95204 18.027Z" fill="#C0C5CE"/>
<path d="M67.2841 24.159C67.4391 23.011 68.0711 21.649 69.3701 21.513C70.0777 21.497 70.7807 21.6303 71.4333 21.9041C72.086 22.1779 72.6737 22.586 73.1581 23.102C74.1803 24.2985 74.9811 25.6676 75.5231 27.145C76.4409 29.3461 76.9965 31.6813 77.1681 34.06C77.2531 36.06 75.8941 37.681 74.6611 39.101C73.2844 40.6465 71.5478 41.8288 69.6051 42.543C68.1687 43.0716 66.6941 43.4898 65.1941 43.794C65.8292 42.9312 66.5451 42.1309 67.3321 41.404C69.233 39.5825 70.8371 37.4746 72.0861 35.157C72.2951 34.6893 72.4031 34.1828 72.4031 33.6705C72.4031 33.1582 72.2951 32.6517 72.0861 32.184C71.2138 30.0106 69.9533 28.014 68.3661 26.292C67.7797 25.72 67.3993 24.97 67.2841 24.159Z" stroke="black" stroke-width="0.1" stroke-miterlimit="10"/>
<path d="M67.2841 24.159C67.4391 23.011 68.0711 21.649 69.3701 21.513C70.0777 21.497 70.7807 21.6303 71.4333 21.9041C72.086 22.1779 72.6737 22.586 73.1581 23.102C74.1803 24.2985 74.9811 25.6676 75.5231 27.145C76.4409 29.3461 76.9965 31.6813 77.1681 34.06C77.2531 36.06 75.8941 37.681 74.6611 39.101C73.2844 40.6465 71.5478 41.8288 69.6051 42.543C68.1687 43.0716 66.6941 43.4898 65.1941 43.794C65.8292 42.9312 66.5451 42.1309 67.3321 41.404C69.233 39.5825 70.8371 37.4746 72.0861 35.157C72.2951 34.6893 72.4031 34.1828 72.4031 33.6705C72.4031 33.1582 72.2951 32.6517 72.0861 32.184C71.2138 30.0106 69.9533 28.014 68.3661 26.292C67.7797 25.72 67.3993 24.97 67.2841 24.159Z" fill="#C0C5CE"/>
<path d="M16.022 37.548C16.4855 35.836 17.586 34.366 19.098 33.439C19.6518 33.5198 20.1783 33.7314 20.6339 34.0562C21.0896 34.3811 21.4612 34.8098 21.718 35.307C22.6771 37.2505 23.1068 39.4125 22.964 41.575C22.678 44.5837 22.4387 47.5963 22.246 50.613C21.5914 56.6263 20.9324 62.6393 20.269 68.652C20.004 70.321 19.746 71.996 19.369 73.646C19.1575 73.2562 19.0256 72.8283 18.981 72.387C17.975 64.703 17.106 57.001 15.992 49.333C15.727 47.5596 15.6159 45.7666 15.66 43.974C15.712 41.83 15.475 39.647 16.022 37.548Z" stroke="black" stroke-width="0.1" stroke-miterlimit="10"/>
<path d="M16.022 37.548C16.4855 35.836 17.586 34.366 19.098 33.439C19.6518 33.5198 20.1783 33.7314 20.6339 34.0562C21.0896 34.3811 21.4612 34.8098 21.718 35.307C22.6771 37.2505 23.1068 39.4125 22.964 41.575C22.678 44.5837 22.4387 47.5963 22.246 50.613C21.5914 56.6263 20.9324 62.6393 20.269 68.652C20.004 70.321 19.746 71.996 19.369 73.646C19.1575 73.2562 19.0256 72.8283 18.981 72.387C17.975 64.703 17.106 57.001 15.992 49.333C15.727 47.5596 15.6159 45.7666 15.66 43.974C15.712 41.83 15.475 39.647 16.022 37.548Z" fill="#C0C5CE"/>
<path d="M45.8041 42.276C46.5224 41.2961 47.4763 40.5132 48.5776 40C49.6788 39.4868 50.8918 39.2598 52.1041 39.34C53.3311 40.388 53.3841 42.217 52.9841 43.67C52.2835 45.9234 51.0814 47.9888 49.4681 49.711C46.7451 52.692 44.2461 55.872 41.4581 58.794C37.8321 62.717 34.2161 66.65 30.5581 70.544C29.3741 71.562 28.4231 72.874 27.0581 73.663C27.1878 73.2994 27.3446 72.9461 27.5271 72.606C31.3591 65.9247 35.1551 59.223 38.9151 52.501C40.8429 48.8584 43.1522 45.4308 45.8041 42.276Z" stroke="black" stroke-width="0.1" stroke-miterlimit="10"/>
<path d="M45.8041 42.276C46.5224 41.2961 47.4763 40.5132 48.5776 40C49.6788 39.4868 50.8918 39.2598 52.1041 39.34C53.3311 40.388 53.3841 42.217 52.9841 43.67C52.2835 45.9234 51.0814 47.9888 49.4681 49.711C46.7451 52.692 44.2461 55.872 41.4581 58.794C37.8321 62.717 34.2161 66.65 30.5581 70.544C29.3741 71.562 28.4231 72.874 27.0581 73.663C27.1878 73.2994 27.3446 72.9461 27.5271 72.606C31.3591 65.9247 35.1551 59.223 38.9151 52.501C40.8429 48.8584 43.1522 45.4308 45.8041 42.276Z" fill="#C0C5CE"/>
<path d="M55.422 40.693C55.722 40.204 55.859 39.382 56.547 39.327C58.298 38.969 59.81 40.276 60.8 41.568C62.664 43.913 63.233 46.919 64.253 49.668C66.062 54.599 67.474 59.661 68.997 64.684C70.0042 67.7409 70.8369 70.8526 71.491 74.004C71.2649 73.8267 71.0661 73.6171 70.901 73.382C66.809 66.701 62.927 59.89 58.785 53.24C57.68 51.163 56.6908 49.0264 55.822 46.84C55.059 44.907 54.448 42.665 55.422 40.693Z" stroke="black" stroke-width="0.1" stroke-miterlimit="10"/>
<path d="M55.422 40.693C55.722 40.204 55.859 39.382 56.547 39.327C58.298 38.969 59.81 40.276 60.8 41.568C62.664 43.913 63.233 46.919 64.253 49.668C66.062 54.599 67.474 59.661 68.997 64.684C70.0042 67.7409 70.8369 70.8526 71.491 74.004C71.2649 73.8267 71.0661 73.6171 70.901 73.382C66.809 66.701 62.927 59.89 58.785 53.24C57.68 51.163 56.6908 49.0264 55.822 46.84C55.059 44.907 54.448 42.665 55.422 40.693Z" fill="#C0C5CE"/>
<path d="M63.2261 18.665C66.4995 18.665 69.1531 16.0114 69.1531 12.738C69.1531 9.46461 66.4995 6.811 63.2261 6.811C59.9527 6.811 57.2991 9.46461 57.2991 12.738C57.2991 16.0114 59.9527 18.665 63.2261 18.665Z" fill="#C0C5CE"/>
<path d="M6.87406 15.529C10.1541 15.529 12.8131 12.87 12.8131 9.59C12.8131 6.30998 10.1541 3.651 6.87406 3.651C3.59404 3.651 0.935059 6.30998 0.935059 9.59C0.935059 12.87 3.59404 15.529 6.87406 15.529Z" fill="#C0C5CE"/>
</svg>
